<mxfile host="app.diagrams.net" modified="2024-03-21T05:24:45.530Z" agent="Mozilla/5.0 (Windows NT 10.0; Win64; x64) AppleWebKit/537.36 (KHTML, like Gecko) Chrome/122.0.0.0 Safari/537.36" etag="42hQ4IeuW24w9SPnCyxM" version="24.0.7" type="github">
  <diagram name="第 1 页" id="uIp9_sblfixBUAIgZwkg">
    <mxGraphModel dx="1621" dy="492" grid="1" gridSize="10" guides="1" tooltips="1" connect="1" arrows="1" fold="1" page="1" pageScale="1" pageWidth="827" pageHeight="1169" math="1" shadow="0">
      <root>
        <mxCell id="0" />
        <mxCell id="1" parent="0" />
        <mxCell id="2YJbEfZzeCw0bkBX_K2v-1" value="" style="endArrow=none;html=1;rounded=0;jumpStyle=sharp;endFill=0;fontFamily=Times New Roman;fontStyle=3;fontSize=16;" parent="1" edge="1">
          <mxGeometry width="50" height="50" relative="1" as="geometry">
            <mxPoint x="120" y="340" as="sourcePoint" />
            <mxPoint x="120" y="900" as="targetPoint" />
          </mxGeometry>
        </mxCell>
        <mxCell id="2YJbEfZzeCw0bkBX_K2v-4" value="" style="endArrow=none;html=1;rounded=0;jumpStyle=sharp;endFill=0;fontFamily=Times New Roman;fontStyle=3;fontSize=16;" parent="1" edge="1">
          <mxGeometry width="50" height="50" relative="1" as="geometry">
            <mxPoint x="360" y="341" as="sourcePoint" />
            <mxPoint x="360" y="900" as="targetPoint" />
          </mxGeometry>
        </mxCell>
        <mxCell id="2YJbEfZzeCw0bkBX_K2v-2" value="" style="endArrow=none;html=1;rounded=0;jumpStyle=sharp;endFill=0;fontFamily=Times New Roman;fontStyle=3;entryX=0.507;entryY=-0.02;entryDx=0;entryDy=0;entryPerimeter=0;fontSize=16;strokeWidth=1;" parent="1" target="2YJbEfZzeCw0bkBX_K2v-33" edge="1">
          <mxGeometry width="50" height="50" relative="1" as="geometry">
            <mxPoint x="40" y="339" as="sourcePoint" />
            <mxPoint x="40" y="880" as="targetPoint" />
          </mxGeometry>
        </mxCell>
        <mxCell id="2YJbEfZzeCw0bkBX_K2v-3" value="" style="endArrow=none;html=1;rounded=0;jumpStyle=sharp;endFill=0;fontFamily=Times New Roman;fontStyle=3;fontSize=16;" parent="1" edge="1">
          <mxGeometry width="50" height="50" relative="1" as="geometry">
            <mxPoint x="280" y="340" as="sourcePoint" />
            <mxPoint x="280" y="900" as="targetPoint" />
          </mxGeometry>
        </mxCell>
        <mxCell id="2YJbEfZzeCw0bkBX_K2v-5" value="" style="endArrow=none;html=1;rounded=0;jumpStyle=sharp;endFill=0;fontFamily=Times New Roman;fontStyle=3;fontSize=16;" parent="1" edge="1">
          <mxGeometry width="50" height="50" relative="1" as="geometry">
            <mxPoint x="200" y="340" as="sourcePoint" />
            <mxPoint x="200" y="900" as="targetPoint" />
          </mxGeometry>
        </mxCell>
        <mxCell id="2YJbEfZzeCw0bkBX_K2v-6" value="" style="endArrow=none;html=1;rounded=0;jumpStyle=sharp;endFill=0;fontFamily=Times New Roman;fontStyle=3;fontSize=16;" parent="1" edge="1">
          <mxGeometry width="50" height="50" relative="1" as="geometry">
            <mxPoint x="440" y="340" as="sourcePoint" />
            <mxPoint x="440" y="900" as="targetPoint" />
          </mxGeometry>
        </mxCell>
        <mxCell id="2YJbEfZzeCw0bkBX_K2v-7" value="" style="endArrow=none;html=1;rounded=0;jumpStyle=sharp;endFill=0;fontFamily=Times New Roman;fontStyle=3;fontSize=16;" parent="1" edge="1">
          <mxGeometry width="50" height="50" relative="1" as="geometry">
            <mxPoint x="600" y="340" as="sourcePoint" />
            <mxPoint x="600" y="900" as="targetPoint" />
          </mxGeometry>
        </mxCell>
        <mxCell id="2YJbEfZzeCw0bkBX_K2v-8" value="" style="endArrow=none;html=1;rounded=0;jumpStyle=sharp;endFill=0;fontFamily=Times New Roman;fontStyle=3;entryX=0.51;entryY=-0.087;entryDx=0;entryDy=0;entryPerimeter=0;fontSize=16;" parent="1" target="2YJbEfZzeCw0bkBX_K2v-42" edge="1">
          <mxGeometry width="50" height="50" relative="1" as="geometry">
            <mxPoint x="520" y="340" as="sourcePoint" />
            <mxPoint x="520" y="880" as="targetPoint" />
          </mxGeometry>
        </mxCell>
        <mxCell id="2YJbEfZzeCw0bkBX_K2v-10" value="" style="endArrow=classicThin;html=1;rounded=0;endFill=1;fontFamily=Times New Roman;fontStyle=3;fillColor=#d5e8d4;strokeColor=#82b366;fontSize=16;" parent="1" edge="1">
          <mxGeometry width="50" height="50" relative="1" as="geometry">
            <mxPoint x="120" y="352" as="sourcePoint" />
            <mxPoint x="280" y="352" as="targetPoint" />
          </mxGeometry>
        </mxCell>
        <mxCell id="2YJbEfZzeCw0bkBX_K2v-45" value="&lt;font style=&quot;font-style: normal; font-size: 16px;&quot; face=&quot;宋体&quot;&gt;颁发属性权威证书&lt;/font&gt;" style="edgeLabel;html=1;align=center;verticalAlign=middle;resizable=0;points=[];fontFamily=Times New Roman;fontStyle=3;fontColor=#82B366;fontSize=16;labelBorderColor=#82B366;" parent="2YJbEfZzeCw0bkBX_K2v-10" vertex="1" connectable="0">
          <mxGeometry x="-0.0875" y="-2" relative="1" as="geometry">
            <mxPoint x="2" y="-2" as="offset" />
          </mxGeometry>
        </mxCell>
        <mxCell id="2YJbEfZzeCw0bkBX_K2v-11" value="" style="endArrow=classicThin;html=1;rounded=0;endFill=1;fontFamily=Times New Roman;fontStyle=3;fillColor=#d5e8d4;strokeColor=#82b366;fontSize=16;" parent="1" edge="1">
          <mxGeometry width="50" height="50" relative="1" as="geometry">
            <mxPoint x="280" y="352" as="sourcePoint" />
            <mxPoint x="360" y="352" as="targetPoint" />
          </mxGeometry>
        </mxCell>
        <mxCell id="2YJbEfZzeCw0bkBX_K2v-12" value="" style="endArrow=classicThin;html=1;rounded=0;endFill=1;fontFamily=Times New Roman;fontStyle=3;fillColor=#d5e8d4;strokeColor=#82b366;fontSize=16;" parent="1" edge="1">
          <mxGeometry width="50" height="50" relative="1" as="geometry">
            <mxPoint x="120" y="392" as="sourcePoint" />
            <mxPoint x="520" y="392" as="targetPoint" />
          </mxGeometry>
        </mxCell>
        <mxCell id="2YJbEfZzeCw0bkBX_K2v-46" value="&lt;font style=&quot;font-style: normal; font-size: 16px;&quot; face=&quot;宋体&quot;&gt;颁发用户属性证书&lt;/font&gt;" style="edgeLabel;html=1;align=center;verticalAlign=middle;resizable=0;points=[];fontFamily=Times New Roman;fontStyle=3;fontColor=#82B366;fontSize=16;labelBorderColor=#82B366;" parent="2YJbEfZzeCw0bkBX_K2v-12" vertex="1" connectable="0">
          <mxGeometry x="0.34" relative="1" as="geometry">
            <mxPoint y="-1" as="offset" />
          </mxGeometry>
        </mxCell>
        <mxCell id="2YJbEfZzeCw0bkBX_K2v-13" value="" style="endArrow=classicThin;html=1;rounded=0;endFill=1;fontFamily=Times New Roman;fontStyle=3;fillColor=#d5e8d4;strokeColor=#82b366;fontSize=16;" parent="1" edge="1">
          <mxGeometry width="50" height="50" relative="1" as="geometry">
            <mxPoint x="520" y="392" as="sourcePoint" />
            <mxPoint x="600" y="392" as="targetPoint" />
          </mxGeometry>
        </mxCell>
        <mxCell id="2YJbEfZzeCw0bkBX_K2v-16" value="" style="endArrow=classicThin;html=1;rounded=0;endFill=1;fontFamily=Times New Roman;fontStyle=3;fillColor=#dae8fc;strokeColor=#6c8ebf;fontSize=16;" parent="1" edge="1">
          <mxGeometry width="50" height="50" relative="1" as="geometry">
            <mxPoint x="40" y="432" as="sourcePoint" />
            <mxPoint x="440" y="432" as="targetPoint" />
          </mxGeometry>
        </mxCell>
        <mxCell id="2YJbEfZzeCw0bkBX_K2v-47" value="GP,AMP" style="edgeLabel;html=1;align=center;verticalAlign=middle;resizable=0;points=[];fontFamily=Times New Roman;fontStyle=3;fontColor=#6c8ebf;fontSize=16;labelBorderColor=#6C8EBF;" parent="2YJbEfZzeCw0bkBX_K2v-16" vertex="1" connectable="0">
          <mxGeometry x="-0.355" y="-1" relative="1" as="geometry">
            <mxPoint as="offset" />
          </mxGeometry>
        </mxCell>
        <mxCell id="2YJbEfZzeCw0bkBX_K2v-17" value="" style="endArrow=classicThin;html=1;rounded=0;endFill=1;fontFamily=Times New Roman;fontStyle=3;fillColor=#dae8fc;strokeColor=#6c8ebf;fontSize=16;" parent="1" edge="1">
          <mxGeometry width="50" height="50" relative="1" as="geometry">
            <mxPoint x="440" y="442" as="sourcePoint" />
            <mxPoint x="200" y="492" as="targetPoint" />
          </mxGeometry>
        </mxCell>
        <mxCell id="2YJbEfZzeCw0bkBX_K2v-18" value="" style="endArrow=classicThin;html=1;rounded=0;endFill=1;fontFamily=Times New Roman;fontStyle=3;fillColor=#dae8fc;strokeColor=#6c8ebf;fontSize=16;" parent="1" edge="1">
          <mxGeometry width="50" height="50" relative="1" as="geometry">
            <mxPoint x="440" y="442" as="sourcePoint" />
            <mxPoint x="280" y="492" as="targetPoint" />
          </mxGeometry>
        </mxCell>
        <mxCell id="2YJbEfZzeCw0bkBX_K2v-19" value="" style="endArrow=classicThin;html=1;rounded=0;endFill=1;fontFamily=Times New Roman;fontStyle=3;fillColor=#dae8fc;strokeColor=#6c8ebf;fontSize=16;" parent="1" edge="1">
          <mxGeometry width="50" height="50" relative="1" as="geometry">
            <mxPoint x="440" y="442" as="sourcePoint" />
            <mxPoint x="360" y="492" as="targetPoint" />
          </mxGeometry>
        </mxCell>
        <mxCell id="2YJbEfZzeCw0bkBX_K2v-20" value="" style="endArrow=classicThin;html=1;rounded=0;endFill=1;fontFamily=Times New Roman;fontStyle=3;fillColor=#dae8fc;strokeColor=#6c8ebf;fontSize=16;" parent="1" edge="1">
          <mxGeometry width="50" height="50" relative="1" as="geometry">
            <mxPoint x="200" y="530" as="sourcePoint" />
            <mxPoint x="440" y="580" as="targetPoint" />
          </mxGeometry>
        </mxCell>
        <mxCell id="2YJbEfZzeCw0bkBX_K2v-21" value="" style="endArrow=classicThin;html=1;rounded=0;endFill=1;fontFamily=Times New Roman;fontStyle=3;fillColor=#dae8fc;strokeColor=#6c8ebf;fontSize=16;" parent="1" edge="1">
          <mxGeometry width="50" height="50" relative="1" as="geometry">
            <mxPoint x="280" y="530" as="sourcePoint" />
            <mxPoint x="440" y="580" as="targetPoint" />
          </mxGeometry>
        </mxCell>
        <mxCell id="2YJbEfZzeCw0bkBX_K2v-22" value="" style="endArrow=classicThin;html=1;rounded=0;endFill=1;fontFamily=Times New Roman;fontStyle=3;fillColor=#dae8fc;strokeColor=#6c8ebf;fontSize=16;" parent="1" edge="1">
          <mxGeometry width="50" height="50" relative="1" as="geometry">
            <mxPoint x="360" y="530" as="sourcePoint" />
            <mxPoint x="440" y="580" as="targetPoint" />
          </mxGeometry>
        </mxCell>
        <mxCell id="2YJbEfZzeCw0bkBX_K2v-23" value="" style="endArrow=classicThin;html=1;rounded=0;endFill=1;fontFamily=Times New Roman;fontStyle=3;fillColor=#fff2cc;strokeColor=#d6b656;fontSize=16;" parent="1" edge="1">
          <mxGeometry width="50" height="50" relative="1" as="geometry">
            <mxPoint x="440" y="631" as="sourcePoint" />
            <mxPoint x="600" y="631" as="targetPoint" />
          </mxGeometry>
        </mxCell>
        <mxCell id="2YJbEfZzeCw0bkBX_K2v-53" value="GP,PK" style="edgeLabel;html=1;align=center;verticalAlign=middle;resizable=0;points=[];fontFamily=Times New Roman;fontStyle=3;fontColor=#d6b656;fontSize=16;labelBackgroundColor=default;labelBorderColor=#D6B656;" parent="2YJbEfZzeCw0bkBX_K2v-23" vertex="1" connectable="0">
          <mxGeometry x="0.4125" y="1" relative="1" as="geometry">
            <mxPoint x="-36" as="offset" />
          </mxGeometry>
        </mxCell>
        <mxCell id="2YJbEfZzeCw0bkBX_K2v-24" value="" style="endArrow=classicThin;html=1;rounded=0;endFill=1;fontFamily=Times New Roman;fontStyle=3;fillColor=#f8cecc;strokeColor=#b85450;fontColor=#B85450;fontSize=16;" parent="1" edge="1">
          <mxGeometry width="50" height="50" relative="1" as="geometry">
            <mxPoint x="520" y="684" as="sourcePoint" />
            <mxPoint x="440" y="684" as="targetPoint" />
          </mxGeometry>
        </mxCell>
        <mxCell id="2YJbEfZzeCw0bkBX_K2v-66" value="g&lt;sub style=&quot;font-size: 16px;&quot;&gt;1&lt;/sub&gt;&lt;sup style=&quot;font-size: 16px;&quot;&gt;R&lt;/sup&gt;" style="edgeLabel;html=1;align=center;verticalAlign=middle;resizable=0;points=[];fontFamily=Times New Roman;fontStyle=3;fontColor=#B85450;fontSize=16;labelBorderColor=#B85450;" parent="2YJbEfZzeCw0bkBX_K2v-24" vertex="1" connectable="0">
          <mxGeometry y="-1" relative="1" as="geometry">
            <mxPoint as="offset" />
          </mxGeometry>
        </mxCell>
        <mxCell id="2YJbEfZzeCw0bkBX_K2v-25" value="" style="endArrow=classicThin;html=1;rounded=0;endFill=1;fontFamily=Times New Roman;fontStyle=3;fontColor=#B85450;fillColor=#f8cecc;strokeColor=#b85450;fontSize=16;" parent="1" edge="1">
          <mxGeometry width="50" height="50" relative="1" as="geometry">
            <mxPoint x="440" y="723" as="sourcePoint" />
            <mxPoint x="200" y="773" as="targetPoint" />
          </mxGeometry>
        </mxCell>
        <mxCell id="2YJbEfZzeCw0bkBX_K2v-26" value="" style="endArrow=classicThin;html=1;rounded=0;endFill=1;fontFamily=Times New Roman;fontStyle=3;fontColor=#B85450;fillColor=#f8cecc;strokeColor=#b85450;fontSize=16;" parent="1" edge="1">
          <mxGeometry width="50" height="50" relative="1" as="geometry">
            <mxPoint x="440" y="723" as="sourcePoint" />
            <mxPoint x="280" y="773" as="targetPoint" />
          </mxGeometry>
        </mxCell>
        <mxCell id="2YJbEfZzeCw0bkBX_K2v-27" value="" style="endArrow=classicThin;html=1;rounded=0;endFill=1;fontFamily=Times New Roman;fontStyle=3;fontColor=#B85450;fillColor=#f8cecc;strokeColor=#b85450;fontSize=16;" parent="1" edge="1">
          <mxGeometry width="50" height="50" relative="1" as="geometry">
            <mxPoint x="440" y="723" as="sourcePoint" />
            <mxPoint x="360" y="773" as="targetPoint" />
          </mxGeometry>
        </mxCell>
        <mxCell id="2YJbEfZzeCw0bkBX_K2v-28" value="" style="endArrow=classicThin;html=1;rounded=0;endFill=1;fontFamily=Times New Roman;fontStyle=3;fontColor=#B85450;fillColor=#f8cecc;strokeColor=#b85450;fontSize=16;" parent="1" edge="1">
          <mxGeometry width="50" height="50" relative="1" as="geometry">
            <mxPoint x="360" y="773" as="sourcePoint" />
            <mxPoint x="440" y="823" as="targetPoint" />
          </mxGeometry>
        </mxCell>
        <mxCell id="2YJbEfZzeCw0bkBX_K2v-29" value="" style="endArrow=classicThin;html=1;rounded=0;endFill=1;fontFamily=Times New Roman;fontStyle=3;fontColor=#B85450;fillColor=#f8cecc;strokeColor=#b85450;fontSize=16;" parent="1" edge="1">
          <mxGeometry width="50" height="50" relative="1" as="geometry">
            <mxPoint x="280" y="773" as="sourcePoint" />
            <mxPoint x="440" y="823" as="targetPoint" />
          </mxGeometry>
        </mxCell>
        <mxCell id="2YJbEfZzeCw0bkBX_K2v-30" value="" style="endArrow=classicThin;html=1;rounded=0;endFill=1;fontFamily=Times New Roman;fontStyle=3;fontColor=#B85450;fillColor=#f8cecc;strokeColor=#b85450;fontSize=16;" parent="1" edge="1">
          <mxGeometry width="50" height="50" relative="1" as="geometry">
            <mxPoint x="200" y="773" as="sourcePoint" />
            <mxPoint x="440" y="823" as="targetPoint" />
          </mxGeometry>
        </mxCell>
        <mxCell id="2YJbEfZzeCw0bkBX_K2v-31" value="" style="endArrow=classicThin;html=1;rounded=0;endFill=1;fontFamily=Times New Roman;fontStyle=0;fillColor=#e1d5e7;strokeColor=#9673a6;fontSize=14;" parent="1" edge="1">
          <mxGeometry width="50" height="50" relative="1" as="geometry">
            <mxPoint x="440" y="881" as="sourcePoint" />
            <mxPoint x="520" y="881" as="targetPoint" />
          </mxGeometry>
        </mxCell>
        <mxCell id="2YJbEfZzeCw0bkBX_K2v-67" value="Decrypt" style="edgeLabel;html=1;align=center;verticalAlign=middle;resizable=0;points=[];fontFamily=Times New Roman;fontStyle=0;fontColor=#9673a6;fontSize=14;labelBorderColor=#9673a6;" parent="2YJbEfZzeCw0bkBX_K2v-31" vertex="1" connectable="0">
          <mxGeometry x="0.1" y="-1" relative="1" as="geometry">
            <mxPoint x="-4" y="-3" as="offset" />
          </mxGeometry>
        </mxCell>
        <mxCell id="2YJbEfZzeCw0bkBX_K2v-33" value="&lt;font face=&quot;宋体&quot;&gt;系统管理员&lt;/font&gt;" style="text;html=1;align=center;verticalAlign=middle;resizable=0;points=[];autosize=1;strokeColor=none;fillColor=none;fontFamily=Times New Roman;fontStyle=1;fontSize=14;" parent="1" vertex="1">
          <mxGeometry x="-5" y="902" width="90" height="30" as="geometry" />
        </mxCell>
        <mxCell id="2YJbEfZzeCw0bkBX_K2v-34" value="$$FCA_s$$" style="text;html=1;align=center;verticalAlign=middle;resizable=0;points=[];autosize=1;strokeColor=none;fillColor=none;fontFamily=Times New Roman;fontStyle=1;fontSize=14;" parent="1" vertex="1">
          <mxGeometry x="75" y="903" width="90" height="30" as="geometry" />
        </mxCell>
        <mxCell id="2YJbEfZzeCw0bkBX_K2v-37" value="$$AA_1$$" style="text;html=1;align=center;verticalAlign=middle;resizable=0;points=[];autosize=1;strokeColor=none;fillColor=none;fontFamily=Times New Roman;fontStyle=1;fontSize=14;" parent="1" vertex="1">
          <mxGeometry x="155" y="903" width="90" height="30" as="geometry" />
        </mxCell>
        <mxCell id="2YJbEfZzeCw0bkBX_K2v-38" value="$$AA_2$$" style="text;html=1;align=center;verticalAlign=middle;resizable=0;points=[];autosize=1;strokeColor=none;fillColor=none;fontFamily=Times New Roman;fontStyle=1;fontSize=14;" parent="1" vertex="1">
          <mxGeometry x="235" y="903" width="90" height="30" as="geometry" />
        </mxCell>
        <mxCell id="2YJbEfZzeCw0bkBX_K2v-39" value="$$AA_n$$" style="text;html=1;align=center;verticalAlign=middle;resizable=0;points=[];autosize=1;strokeColor=none;fillColor=none;fontFamily=Times New Roman;fontStyle=1;fontSize=14;" parent="1" vertex="1">
          <mxGeometry x="315" y="903" width="90" height="30" as="geometry" />
        </mxCell>
        <mxCell id="2YJbEfZzeCw0bkBX_K2v-40" value="..." style="text;html=1;align=center;verticalAlign=middle;resizable=0;points=[];autosize=1;strokeColor=none;fillColor=none;fontFamily=Times New Roman;fontStyle=1;fontSize=14;" parent="1" vertex="1">
          <mxGeometry x="305" y="899" width="30" height="30" as="geometry" />
        </mxCell>
        <mxCell id="2YJbEfZzeCw0bkBX_K2v-41" value="区块链" style="text;html=1;align=center;verticalAlign=middle;resizable=0;points=[];autosize=1;strokeColor=none;fillColor=none;fontFamily=宋体;fontStyle=1;fontSize=14;" parent="1" vertex="1">
          <mxGeometry x="405" y="903" width="70" height="30" as="geometry" />
        </mxCell>
        <mxCell id="2YJbEfZzeCw0bkBX_K2v-42" value="数据使用者" style="text;html=1;align=center;verticalAlign=middle;resizable=0;points=[];autosize=1;strokeColor=none;fillColor=none;fontFamily=宋体;fontStyle=1;fontSize=14;" parent="1" vertex="1">
          <mxGeometry x="475" y="903" width="90" height="30" as="geometry" />
        </mxCell>
        <mxCell id="2YJbEfZzeCw0bkBX_K2v-43" value="数据拥有者" style="text;html=1;align=center;verticalAlign=middle;resizable=0;points=[];autosize=1;strokeColor=none;fillColor=none;fontFamily=宋体;fontStyle=1;fontSize=14;" parent="1" vertex="1">
          <mxGeometry x="555" y="903" width="90" height="30" as="geometry" />
        </mxCell>
        <mxCell id="2YJbEfZzeCw0bkBX_K2v-48" value="AK&lt;sub style=&quot;font-size: 16px;&quot;&gt;1&lt;/sub&gt;" style="text;html=1;align=center;verticalAlign=middle;resizable=0;points=[];autosize=1;fontFamily=Times New Roman;fontStyle=3;fontColor=#6c8ebf;fontSize=16;" parent="1" vertex="1">
          <mxGeometry x="215" y="540" width="50" height="40" as="geometry" />
        </mxCell>
        <mxCell id="2YJbEfZzeCw0bkBX_K2v-49" value="AK&lt;sub style=&quot;font-size: 16px;&quot;&gt;2&lt;/sub&gt;" style="text;html=1;align=center;verticalAlign=middle;resizable=0;points=[];autosize=1;strokeColor=none;fillColor=none;fontFamily=Times New Roman;fontStyle=3;fontColor=#6c8ebf;fontSize=16;" parent="1" vertex="1">
          <mxGeometry x="295" y="554" width="50" height="40" as="geometry" />
        </mxCell>
        <mxCell id="2YJbEfZzeCw0bkBX_K2v-50" value="AK&lt;span style=&quot;font-size: 16px;&quot;&gt;&lt;sub style=&quot;font-size: 16px;&quot;&gt;n&lt;/sub&gt;&lt;/span&gt;" style="text;html=1;align=center;verticalAlign=middle;resizable=0;points=[];autosize=1;strokeColor=none;fillColor=none;fontFamily=Times New Roman;fontStyle=3;fontColor=#6c8ebf;fontSize=16;" parent="1" vertex="1">
          <mxGeometry x="375" y="567" width="50" height="40" as="geometry" />
        </mxCell>
        <mxCell id="2YJbEfZzeCw0bkBX_K2v-51" value="" style="shape=curlyBracket;whiteSpace=wrap;html=1;rounded=1;flipH=1;labelPosition=right;verticalLabelPosition=middle;align=left;verticalAlign=middle;size=0.5;fontFamily=Times New Roman;fontStyle=3;fillColor=#dae8fc;strokeColor=#6c8ebf;fontSize=16;" parent="1" vertex="1">
          <mxGeometry x="440" y="582" width="20" height="42" as="geometry" />
        </mxCell>
        <mxCell id="2YJbEfZzeCw0bkBX_K2v-52" value="&lt;font color=&quot;#6c8ebf&quot; style=&quot;font-size: 16px;&quot;&gt;KeyGenerate&lt;/font&gt;" style="text;html=1;align=center;verticalAlign=middle;resizable=0;points=[];autosize=1;strokeColor=none;fillColor=none;fontFamily=Times New Roman;fontStyle=3;fontSize=16;" parent="1" vertex="1">
          <mxGeometry x="450" y="589" width="110" height="30" as="geometry" />
        </mxCell>
        <mxCell id="2YJbEfZzeCw0bkBX_K2v-56" value="" style="shape=curlyBracket;whiteSpace=wrap;html=1;rounded=1;labelPosition=left;verticalLabelPosition=middle;align=right;verticalAlign=middle;fontFamily=Times New Roman;fontStyle=3;fillColor=#f8cecc;strokeColor=#b85450;fontSize=16;" parent="1" vertex="1">
          <mxGeometry x="420" y="684" width="20" height="40" as="geometry" />
        </mxCell>
        <mxCell id="2YJbEfZzeCw0bkBX_K2v-57" value="&lt;font style=&quot;font-style: normal; font-size: 16px;&quot; face=&quot;宋体&quot;&gt;事件监听&lt;/font&gt;" style="text;html=1;align=center;verticalAlign=middle;resizable=0;points=[];autosize=1;strokeColor=none;fillColor=none;fontFamily=Times New Roman;fontStyle=3;fontColor=#B85450;fontSize=16;" parent="1" vertex="1">
          <mxGeometry x="329" y="689" width="90" height="30" as="geometry" />
        </mxCell>
        <mxCell id="2YJbEfZzeCw0bkBX_K2v-58" value="ST&lt;sub style=&quot;font-size: 16px;&quot;&gt;1&lt;/sub&gt;" style="text;html=1;align=center;verticalAlign=middle;resizable=0;points=[];autosize=1;strokeColor=none;fillColor=none;fontFamily=Times New Roman;fontStyle=3;fontColor=#B85450;fontSize=16;" parent="1" vertex="1">
          <mxGeometry x="212" y="777" width="50" height="40" as="geometry" />
        </mxCell>
        <mxCell id="2YJbEfZzeCw0bkBX_K2v-60" value="ST&lt;sub style=&quot;font-size: 16px;&quot;&gt;2&lt;/sub&gt;" style="text;html=1;align=center;verticalAlign=middle;resizable=0;points=[];autosize=1;strokeColor=none;fillColor=none;fontFamily=Times New Roman;fontStyle=3;fontColor=#B85450;fontSize=16;" parent="1" vertex="1">
          <mxGeometry x="295" y="795" width="50" height="40" as="geometry" />
        </mxCell>
        <mxCell id="2YJbEfZzeCw0bkBX_K2v-61" value="ST&lt;sub style=&quot;font-size: 16px;&quot;&gt;n&lt;/sub&gt;" style="text;html=1;align=center;verticalAlign=middle;resizable=0;points=[];autosize=1;strokeColor=none;fillColor=none;fontFamily=Times New Roman;fontStyle=3;fontColor=#B85450;fontSize=16;" parent="1" vertex="1">
          <mxGeometry x="375" y="809" width="50" height="40" as="geometry" />
        </mxCell>
        <mxCell id="2YJbEfZzeCw0bkBX_K2v-63" value="" style="shape=curlyBracket;whiteSpace=wrap;html=1;rounded=1;flipH=1;labelPosition=right;verticalLabelPosition=middle;align=left;verticalAlign=middle;size=0.5;fontFamily=Times New Roman;fontStyle=3;fillColor=#e1d5e7;strokeColor=#9673a6;fontSize=16;" parent="1" vertex="1">
          <mxGeometry x="520" y="823" width="20" height="46" as="geometry" />
        </mxCell>
        <mxCell id="2YJbEfZzeCw0bkBX_K2v-64" value="TokenGeneate" style="text;html=1;align=center;verticalAlign=middle;resizable=0;points=[];autosize=1;fontFamily=Times New Roman;fontStyle=3;fontSize=16;fontColor=#9673a6;" parent="1" vertex="1">
          <mxGeometry x="525" y="830" width="120" height="30" as="geometry" />
        </mxCell>
        <mxCell id="2YJbEfZzeCw0bkBX_K2v-68" value="" style="endArrow=classicThin;html=1;rounded=0;endFill=1;fontFamily=Times New Roman;fontStyle=3;fillColor=#fff2cc;strokeColor=#d6b656;fontSize=16;" parent="1" edge="1">
          <mxGeometry width="50" height="50" relative="1" as="geometry">
            <mxPoint x="600" y="655" as="sourcePoint" />
            <mxPoint x="440" y="655" as="targetPoint" />
          </mxGeometry>
        </mxCell>
        <mxCell id="2YJbEfZzeCw0bkBX_K2v-69" value="MD" style="edgeLabel;html=1;align=center;verticalAlign=middle;resizable=0;points=[];fontFamily=Times New Roman;fontStyle=3;fontColor=#D6B656;fontSize=16;labelBorderColor=#D6B656;" parent="2YJbEfZzeCw0bkBX_K2v-68" vertex="1" connectable="0">
          <mxGeometry x="-0.0235" y="2" relative="1" as="geometry">
            <mxPoint x="-3" y="-2" as="offset" />
          </mxGeometry>
        </mxCell>
        <mxCell id="2YJbEfZzeCw0bkBX_K2v-71" value="" style="shape=curlyBracket;html=1;rounded=1;labelPosition=left;verticalLabelPosition=middle;align=right;verticalAlign=middle;fontFamily=Times New Roman;fontStyle=3;fillColor=#dae8fc;strokeColor=#6c8ebf;fontColor=#6c8ebf;fontSize=16;" parent="1" vertex="1">
          <mxGeometry x="180" y="490" width="20" height="40" as="geometry" />
        </mxCell>
        <mxCell id="2YJbEfZzeCw0bkBX_K2v-72" value="" style="shape=curlyBracket;html=1;rounded=1;labelPosition=left;verticalLabelPosition=middle;align=right;verticalAlign=middle;fontFamily=Times New Roman;fontStyle=3;fillColor=#dae8fc;strokeColor=#6c8ebf;fontColor=#6c8ebf;fontSize=16;" parent="1" vertex="1">
          <mxGeometry x="259" y="490" width="20" height="40" as="geometry" />
        </mxCell>
        <mxCell id="2YJbEfZzeCw0bkBX_K2v-74" value="" style="shape=curlyBracket;html=1;rounded=1;labelPosition=left;verticalLabelPosition=middle;align=right;verticalAlign=middle;fontFamily=Times New Roman;fontStyle=3;fillColor=#dae8fc;strokeColor=#6c8ebf;fontColor=#6c8ebf;fontSize=16;" parent="1" vertex="1">
          <mxGeometry x="340" y="490" width="20" height="40" as="geometry" />
        </mxCell>
        <mxCell id="2YJbEfZzeCw0bkBX_K2v-78" value="1" style="ellipse;whiteSpace=wrap;html=1;fillColor=#d5e8d4;strokeColor=#82b366;fontSize=16;" parent="1" vertex="1">
          <mxGeometry x="390" y="340" width="20" height="20" as="geometry" />
        </mxCell>
        <mxCell id="2YJbEfZzeCw0bkBX_K2v-79" value="2" style="ellipse;whiteSpace=wrap;html=1;fillColor=#dae8fc;strokeColor=#6c8ebf;fontSize=16;" parent="1" vertex="1">
          <mxGeometry x="450" y="500" width="20" height="20" as="geometry" />
        </mxCell>
        <mxCell id="2YJbEfZzeCw0bkBX_K2v-80" value="3" style="ellipse;whiteSpace=wrap;html=1;fillColor=#fff2cc;strokeColor=#d6b656;fontSize=16;" parent="1" vertex="1">
          <mxGeometry x="402" y="637" width="20" height="20" as="geometry" />
        </mxCell>
        <mxCell id="2YJbEfZzeCw0bkBX_K2v-81" value="4" style="ellipse;whiteSpace=wrap;html=1;fillColor=#f8cecc;strokeColor=#b85450;fontSize=16;" parent="1" vertex="1">
          <mxGeometry x="454" y="762" width="20" height="20" as="geometry" />
        </mxCell>
        <mxCell id="2YJbEfZzeCw0bkBX_K2v-82" value="5" style="ellipse;whiteSpace=wrap;html=1;fillColor=#e1d5e7;strokeColor=#9673a6;fontSize=16;" parent="1" vertex="1">
          <mxGeometry x="530" y="870" width="20" height="20" as="geometry" />
        </mxCell>
        <mxCell id="2YJbEfZzeCw0bkBX_K2v-83" value="&lt;font style=&quot;font-size: 16px;&quot; face=&quot;Times New Roman&quot; color=&quot;#6c8ebf&quot;&gt;&lt;i style=&quot;font-size: 16px;&quot;&gt;&lt;b style=&quot;font-size: 16px;&quot;&gt;Key Negotiation&lt;/b&gt;&lt;/i&gt;&lt;/font&gt;" style="text;html=1;align=center;verticalAlign=middle;resizable=0;points=[];autosize=1;strokeColor=none;fillColor=none;fontSize=16;" parent="1" vertex="1">
          <mxGeometry x="57" y="494" width="130" height="30" as="geometry" />
        </mxCell>
        <mxCell id="2YJbEfZzeCw0bkBX_K2v-85" value="" style="endArrow=classicThin;html=1;rounded=0;endFill=1;fillColor=#d5e8d4;strokeColor=#82b366;fontSize=16;" parent="1" edge="1">
          <mxGeometry width="50" height="50" relative="1" as="geometry">
            <mxPoint x="120" y="392" as="sourcePoint" />
            <mxPoint x="40" y="392" as="targetPoint" />
          </mxGeometry>
        </mxCell>
        <mxCell id="SBpCEvWJhNtqc0kfGiNu-1" value="" style="endArrow=classic;html=1;rounded=0;fillColor=#dae8fc;strokeColor=#6C8EBF;fontSize=16;" parent="1" edge="1">
          <mxGeometry width="50" height="50" relative="1" as="geometry">
            <mxPoint x="40" y="631" as="sourcePoint" />
            <mxPoint x="440" y="631" as="targetPoint" />
          </mxGeometry>
        </mxCell>
        <mxCell id="SBpCEvWJhNtqc0kfGiNu-3" value="KeyGen" style="edgeLabel;html=1;align=center;verticalAlign=middle;resizable=0;points=[];labelBorderColor=#6C8EBF;fontColor=#6C8EBF;fontStyle=2;fontFamily=Times New Roman;fontSize=16;" parent="SBpCEvWJhNtqc0kfGiNu-1" vertex="1" connectable="0">
          <mxGeometry x="-0.0064" y="-2" relative="1" as="geometry">
            <mxPoint as="offset" />
          </mxGeometry>
        </mxCell>
        <mxCell id="hFGdiXI_Q_og7QuC66ej-4" value="" style="endArrow=classicThin;html=1;rounded=0;endFill=1;fontFamily=Times New Roman;fontStyle=3;fontColor=#B85450;fillColor=#e1d5e7;strokeColor=#9673a6;fontSize=16;" parent="1" edge="1">
          <mxGeometry width="50" height="50" relative="1" as="geometry">
            <mxPoint x="440" y="822" as="sourcePoint" />
            <mxPoint x="520" y="822" as="targetPoint" />
          </mxGeometry>
        </mxCell>
        <mxCell id="hFGdiXI_Q_og7QuC66ej-5" value="&lt;i style=&quot;font-size: 16px;&quot;&gt;&lt;font style=&quot;font-size: 16px;&quot; face=&quot;Times New Roman&quot;&gt;&lt;b style=&quot;font-size: 16px;&quot;&gt;AASetUp&lt;/b&gt;&lt;/font&gt;&lt;/i&gt;" style="text;html=1;align=center;verticalAlign=middle;resizable=0;points=[];autosize=1;strokeColor=none;fillColor=none;fontColor=#6c8ebf;fontSize=16;" parent="1" vertex="1">
          <mxGeometry x="279" y="437" width="80" height="30" as="geometry" />
        </mxCell>
      </root>
    </mxGraphModel>
  </diagram>
</mxfile>
